<?xml version="1.0" encoding="UTF-8"?>
<svg width="27px" height="26px" viewBox="0 0 27 26" version="1.1" xmlns="http://www.w3.org/2000/svg" xmlns:xlink="http://www.w3.org/1999/xlink">
    <!-- Generator: sketchtool 52.6 (67491) - http://www.bohemiancoding.com/sketch -->
    <title>87139F9D-1F28-4A00-BFA8-C8D6950336A1</title>
    <desc>Created with sketchtool.</desc>
    <g id="Symbols" stroke="none" stroke-width="1" fill="none" fill-rule="evenodd" opacity="0.694777716">
        <g id="Preview/Android/Test-Notif-disable" transform="translate(-214.000000, -267.000000)" fill="#A1A7AB">
            <g id="Group-6">
                <g id="Group-5">
                    <g id="Notif" transform="translate(40.000000, 237.000000)">
                        <path d="M180.267256,50.1931624 C179.491615,50.1931624 179.24623,49.6925214 179.722897,49.0804701 L182.221871,45.873547 C182.698538,45.262906 183.492512,45.2502137 183.988922,45.8467521 L185.201743,47.3077778 C185.698153,47.9043162 186.492128,47.8916239 186.968794,47.2795726 L189.467769,44.0599573 C189.944435,43.447906 190.714435,43.4549573 191.18123,44.0740598 L194.932512,49.0649573 C195.397897,49.6868803 195.145461,50.1931624 194.36982,50.1931624 L180.267256,50.1931624 Z M177.446743,30.4495726 C175.895461,30.4495726 174.62623,31.7188034 174.62623,33.2700855 L174.62623,53.0136752 C174.62623,54.5649573 175.895461,55.834188 177.446743,55.834188 L197.190333,55.834188 C198.741615,55.834188 200.010846,54.5649573 200.010846,53.0136752 L200.010846,33.834188 C200.010846,31.9649166 198.495502,30.4495726 196.62623,30.4495726 L177.446743,30.4495726 Z" id="Fill-1"></path>
                    </g>
                </g>
            </g>
        </g>
    </g>
</svg>