<?xml version="1.0" encoding="UTF-8"?>
<svg width="24px" height="24px" viewBox="0 0 24 24" version="1.1" xmlns="http://www.w3.org/2000/svg" xmlns:xlink="http://www.w3.org/1999/xlink">
    <!-- Generator: Sketch 52.5 (67469) - http://www.bohemiancoding.com/sketch -->
    <title>Icon/Segmentation/Green</title>
    <desc>Created with Sketch.</desc>
    <defs>
        <polygon id="path-1" points="0 0.6888 8.76761053 0.6888 8.76761053 4.35606316 0 4.35606316"></polygon>
    </defs>
    <g id="Icon/Segmentation/Green" stroke="none" stroke-width="1" fill="none" fill-rule="evenodd">
        <g id="Group-9">
            <rect id="Rectangle" fill-rule="nonzero" x="0" y="0" width="24" height="24"></rect>
            <g id="Group-8" transform="translate(2.000000, 5.000000)">
                <g id="Group-3" transform="translate(0.000000, 6.631579)">
                    <mask id="mask-2" fill="white">
                        <use xlink:href="#path-1"></use>
                    </mask>
                    <g id="Clip-2"></g>
                    <path d="M8.76761053,1.65037895 C7.65792632,1.01043158 5.97903158,0.6888 4.94450526,0.6888 C3.29434737,0.6888 -0.000442105263,1.5078 -0.000442105263,3.13364211 L-0.000442105263,3.74485263 C-0.000442105263,4.08085263 0.278084211,4.35606316 0.618505263,4.35606316 L5.20976842,4.35606316 C5.85413684,3.10269474 7.2324,2.22732632 8.76761053,1.65037895" id="Fill-1" fill="#42B549" mask="url(#mask-2)"></path>
                </g>
                <path d="M13.7358789,8.98026316 C11.3109316,8.98026316 6.47098421,10.1838947 6.47098421,12.5723684 L6.47098421,13.4698421 C6.47098421,13.965 6.87993158,14.3684211 7.37840526,14.3684211 L20.0922474,14.3684211 C20.5907211,14.3684211 20.9996684,13.965 20.9996684,13.4698421 L20.9996684,12.5723684 C20.9996684,10.1838947 16.1597211,8.98026316 13.7358789,8.98026316 M13.7358789,7.18421053 C15.7419316,7.18421053 17.3677737,5.57715789 17.3677737,3.59210526 C17.3677737,1.60705263 15.7419316,0 13.7358789,0 C11.7287211,0 10.1028789,1.60705263 10.1028789,3.59210526 C10.1028789,5.57715789 11.7287211,7.18421053 13.7358789,7.18421053" id="Fill-4" fill="#42B549"></path>
                <path d="M4.94450526,6.09729474 C6.31061053,6.09729474 7.41697895,5.00308421 7.41697895,3.65245263 C7.41697895,2.30071579 6.31061053,1.20761053 4.94450526,1.20761053 C3.57950526,1.20761053 2.47313684,2.30071579 2.47313684,3.65245263 C2.47313684,5.00308421 3.57950526,6.09729474 4.94450526,6.09729474" id="Fill-6" fill="#42B549"></path>
            </g>
        </g>
    </g>
</svg>