<?xml version="1.0" encoding="UTF-8"?>
<svg width="24px" height="24px" viewBox="0 0 24 24" version="1.1" xmlns="http://www.w3.org/2000/svg" xmlns:xlink="http://www.w3.org/1999/xlink">
    <!-- Generator: Sketch 52.5 (67469) - http://www.bohemiancoding.com/sketch -->
    <title>Icon/Settings/Green</title>
    <desc>Created with Sketch.</desc>
    <g id="Icon/Settings/Green" stroke="none" stroke-width="1" fill="none" fill-rule="evenodd">
        <g id="Group">
            <rect id="Rectangle" fill-rule="nonzero" x="0" y="0" width="24" height="24"></rect>
            <path d="M12,16 C9.791,16 8,14.209 8,12 C8,9.791 9.791,8 12,8 C14.209,8 16,9.791 16,12 C16,14.209 14.209,16 12,16 M21.372,10.748 L19.78,10.11 C19.58,9.3 19.26,8.53 18.84,7.84 L19.515,6.262 C19.675,5.886 19.591,5.451 19.302,5.162 L18.838,4.698 C18.549,4.409 18.113,4.325 17.738,4.485 L16.16,5.16 C15.47,4.74 14.7,4.42 13.89,4.22 L13.252,2.628 C13.1,2.249 12.732,2 12.323,2 L11.677,2 C11.268,2 10.9,2.249 10.748,2.628 L10.11,4.22 C9.3,4.42 8.53,4.74 7.84,5.16 L6.262,4.485 C5.887,4.325 5.451,4.409 5.162,4.698 L4.698,5.162 C4.409,5.451 4.325,5.886 4.485,6.262 L5.16,7.84 C4.74,8.53 4.42,9.3 4.22,10.11 L2.628,10.748 C2.249,10.9 2,11.268 2,11.677 L2,12.323 C2,12.732 2.249,13.1 2.628,13.252 L4.22,13.89 C4.42,14.7 4.74,15.47 5.16,16.16 L4.485,17.738 C4.325,18.113 4.409,18.549 4.698,18.838 L5.162,19.302 C5.451,19.591 5.887,19.675 6.262,19.515 L7.84,18.84 C8.53,19.26 9.3,19.58 10.11,19.78 L10.748,21.372 C10.9,21.751 11.268,22 11.677,22 L12.323,22 C12.732,22 13.1,21.751 13.252,21.372 L13.89,19.78 C14.7,19.58 15.47,19.26 16.16,18.84 L17.738,19.515 C18.113,19.675 18.549,19.591 18.838,19.302 L19.302,18.838 C19.591,18.549 19.675,18.113 19.515,17.738 L18.84,16.16 C19.26,15.47 19.58,14.7 19.78,13.89 L21.372,13.252 C21.751,13.1 22,12.732 22,12.323 L22,11.677 C22,11.268 21.751,10.9 21.372,10.748" id="Fill-1" fill="#42B549"></path>
        </g>
    </g>
</svg>