<?xml version="1.0" encoding="UTF-8"?>
<svg width="24px" height="24px" viewBox="0 0 24 24" version="1.1" xmlns="http://www.w3.org/2000/svg" xmlns:xlink="http://www.w3.org/1999/xlink">
    <!-- Generator: Sketch 52.5 (67469) - http://www.bohemiancoding.com/sketch -->
    <title>Icon/Campaign/Green</title>
    <desc>Created with Sketch.</desc>
    <g id="Icon/Campaign/Green" stroke="none" stroke-width="1" fill="none" fill-rule="evenodd">
        <g id="System/Topads">
            <rect id="Rectangle-path" x="0" y="0" width="24" height="24"></rect>
            <g id="Group-6" transform="translate(1.000000, 3.000000)" fill="#42B549">
                <g id="Group-3">
                    <path d="M14.6904,0.8516 L13.5134,1.4056 L9.8094,3.1486 C8.8144,3.6176 7.4374,3.9996 6.7504,3.9996 L5.5004,3.9996 L5.5004,5.9996 L5.5004,9.9996 L5.5004,11.9996 L6.7504,11.9996 C6.8244,11.9996 6.9104,12.0066 7.0004,12.0146 L7.0004,15.9996 C7.0004,17.0996 7.9004,17.9996 9.0004,17.9996 C10.0994,17.9996 11.0004,17.0996 11.0004,15.9996 L11.0004,13.4126 L14.6904,15.1486 C15.6854,15.6176 16.5004,15.0996 16.5004,13.9996 L16.5004,1.9996 C16.5004,0.9006 15.6854,0.3836 14.6904,0.8516 Z M19.2074,5.2066 L20.2074,4.2066 C20.5974,3.8166 20.5974,3.1836 20.2074,2.7926 C19.8164,2.4026 19.1834,2.4026 18.7934,2.7926 L17.7934,3.7926 C17.4024,4.1836 17.4024,4.8166 17.7934,5.2066 C17.9884,5.4026 18.2444,5.4996 18.5004,5.4996 C18.7554,5.4996 19.0114,5.4026 19.2074,5.2066 Z M20.2074,13.2066 C20.5974,12.8166 20.5974,12.1836 20.2074,11.7926 L19.2074,10.7926 C18.8164,10.4026 18.1834,10.4026 17.7934,10.7926 C17.4024,11.1836 17.4024,11.8166 17.7934,12.2066 L18.7934,13.2066 C18.9884,13.4026 19.2444,13.4996 19.5004,13.4996 C19.7554,13.4996 20.0114,13.4026 20.2074,13.2066 Z M22.0004,7.9996 C22.0004,7.4476 21.5524,6.9996 21.0004,6.9996 L19.0004,6.9996 C18.4474,6.9996 18.0004,7.4476 18.0004,7.9996 C18.0004,8.5526 18.4474,8.9996 19.0004,8.9996 L21.0004,8.9996 C21.5524,8.9996 22.0004,8.5526 22.0004,7.9996 Z M3.9004,11.7996 C1.8014,11.7996 0.0994,10.0986 0.0994,7.9996 C0.0994,5.9016 1.8014,4.2006 3.9004,4.2006 L3.9004,11.7996 Z" id="Fill-1"></path>
                </g>
            </g>
        </g>
    </g>
</svg>