<?xml version="1.0" encoding="UTF-8"?>
<svg width="124px" height="69px" viewBox="0 0 124 69" version="1.1" xmlns="http://www.w3.org/2000/svg" xmlns:xlink="http://www.w3.org/1999/xlink">
    <!-- Generator: sketchtool 52.6 (67491) - http://www.bohemiancoding.com/sketch -->
    <title>0057C7E8-DF4B-4B4F-9C91-708BF51AF906</title>
    <desc>Created with sketchtool.</desc>
    <defs>
        <rect id="path-1" x="0" y="0" width="124" height="69" rx="6"></rect>
        <filter x="-104.1%" y="-175.0%" width="308.3%" height="450.0%" filterUnits="objectBoundingBox" id="filter-3">
            <feGaussianBlur stdDeviation="42" in="SourceGraphic"></feGaussianBlur>
        </filter>
        <rect id="path-4" x="0" y="0" width="109" height="34" rx="4"></rect>
        <filter x="-6.4%" y="-14.7%" width="112.8%" height="141.2%" filterUnits="objectBoundingBox" id="filter-5">
            <feOffset dx="0" dy="2" in="SourceAlpha" result="shadowOffsetOuter1"></feOffset>
            <feGaussianBlur stdDeviation="2" in="shadowOffsetOuter1" result="shadowBlurOuter1"></feGaussianBlur>
            <feColorMatrix values="0 0 0 0 0   0 0 0 0 0   0 0 0 0 0  0 0 0 0.13 0" type="matrix" in="shadowBlurOuter1"></feColorMatrix>
        </filter>
        <rect id="path-6" x="0" y="0" width="109" height="34" rx="4"></rect>
        <filter x="-6.4%" y="-14.7%" width="112.8%" height="141.2%" filterUnits="objectBoundingBox" id="filter-7">
            <feOffset dx="0" dy="2" in="SourceAlpha" result="shadowOffsetOuter1"></feOffset>
            <feGaussianBlur stdDeviation="2" in="shadowOffsetOuter1" result="shadowBlurOuter1"></feGaussianBlur>
            <feColorMatrix values="0 0 0 0 0   0 0 0 0 0   0 0 0 0 0  0 0 0 0.13 0" type="matrix" in="shadowBlurOuter1"></feColorMatrix>
        </filter>
    </defs>
    <g id="Symbols" stroke="none" stroke-width="1" fill="none" fill-rule="evenodd">
        <g id="Asset/Create/Push-Notification">
            <g id="Group-25">
                <mask id="mask-2" fill="white">
                    <use xlink:href="#path-1"></use>
                </mask>
                <g id="Rectangle" fill-rule="nonzero"></g>
                <rect id="Rectangle" fill="#D3F0D4" fill-rule="nonzero" filter="url(#filter-3)" mask="url(#mask-2)" x="2" y="0" width="121" height="72"></rect>
                <g id="Group-23" mask="url(#mask-2)">
                    <g transform="translate(8.000000, 4.000000)">
                        <g id="Group-21" stroke-width="1" fill="none" fill-rule="evenodd">
                            <g id="Rectangle" fill-rule="nonzero">
                                <use fill="black" fill-opacity="1" filter="url(#filter-5)" xlink:href="#path-4"></use>
                                <use fill="#FFFFFF" xlink:href="#path-4"></use>
                            </g>
                            <g id="Group-12" transform="translate(8.000000, 9.000000)">
                                <rect id="Rectangle" fill-rule="nonzero" x="0" y="0" width="16" height="16"></rect>
                                <path d="M12.6666667,10 L12.6666667,7.33333333 C12.6666667,5.21333333 11.26,3.43333333 9.33333333,2.86 C9.32666667,2.86 9.32666667,2.85333333 9.32,2.85333333 C9.32666667,2.79333333 9.33333333,2.73333333 9.33333333,2.66666667 C9.33333333,1.93333333 8.73333333,1.33333333 8,1.33333333 C7.26666667,1.33333333 6.66666667,1.93333333 6.66666667,2.66666667 C6.66666667,2.73333333 6.67333333,2.79333333 6.68,2.85333333 C6.67333333,2.85333333 6.67333333,2.86 6.66666667,2.86 C4.74,3.43333333 3.33333333,5.21333333 3.33333333,7.33333333 L3.33333333,10 C3.33333333,10.7333333 2.73333333,11.3333333 2,11.3333333 L2,12.16 C2.43333333,12.3466667 2.88,12.5 3.33333333,12.64 C3.36666667,12.6533333 3.4,12.66 3.44,12.6666667 C4.47866667,12.978 5.55933333,13.1806667 6.67266667,13.274 C6.672,13.294 6.66666667,13.3126667 6.66666667,13.3333333 C6.66666667,14.0693333 7.264,14.6666667 8,14.6666667 C8.736,14.6666667 9.33333333,14.0693333 9.33333333,13.3333333 C9.33333333,13.3126667 9.328,13.294 9.32733333,13.274 C10.4433333,13.1813333 11.528,12.978 12.5666667,12.6666667 C12.6,12.66 12.6333333,12.6466667 12.6666667,12.64 C13.12,12.5 13.5666667,12.3466667 14,12.16 L14,11.3333333 C13.2666667,11.3333333 12.6666667,10.7333333 12.6666667,10" id="Fill-1" fill="#ADE3AF"></path>
                            </g>
                        </g>
                        <rect id="Rectangle" fill="#F0F0F0" fill-rule="nonzero" x="30" y="8" width="70" height="4" rx="1"></rect>
                        <rect id="Rectangle-Copy" fill="#F0F0F0" fill-rule="nonzero" x="30" y="15" width="70" height="4" rx="1"></rect>
                        <rect id="Rectangle-Copy-2" fill="#F0F0F0" fill-rule="nonzero" x="30" y="22" width="42" height="4" rx="1"></rect>
                    </g>
                </g>
                <g id="Group-23-Copy" mask="url(#mask-2)">
                    <g transform="translate(8.000000, 42.000000)">
                        <g id="Group-21" stroke-width="1" fill="none" fill-rule="evenodd">
                            <g id="Rectangle" fill-rule="nonzero">
                                <use fill="black" fill-opacity="1" filter="url(#filter-7)" xlink:href="#path-6"></use>
                                <use fill="#FFFFFF" xlink:href="#path-6"></use>
                            </g>
                            <g id="Group-12" transform="translate(8.000000, 9.000000)">
                                <rect id="Rectangle" fill-rule="nonzero" x="0" y="0" width="16" height="16"></rect>
                                <path d="M12.6666667,10 L12.6666667,7.33333333 C12.6666667,5.21333333 11.26,3.43333333 9.33333333,2.86 C9.32666667,2.86 9.32666667,2.85333333 9.32,2.85333333 C9.32666667,2.79333333 9.33333333,2.73333333 9.33333333,2.66666667 C9.33333333,1.93333333 8.73333333,1.33333333 8,1.33333333 C7.26666667,1.33333333 6.66666667,1.93333333 6.66666667,2.66666667 C6.66666667,2.73333333 6.67333333,2.79333333 6.68,2.85333333 C6.67333333,2.85333333 6.67333333,2.86 6.66666667,2.86 C4.74,3.43333333 3.33333333,5.21333333 3.33333333,7.33333333 L3.33333333,10 C3.33333333,10.7333333 2.73333333,11.3333333 2,11.3333333 L2,12.16 C2.43333333,12.3466667 2.88,12.5 3.33333333,12.64 C3.36666667,12.6533333 3.4,12.66 3.44,12.6666667 C4.47866667,12.978 5.55933333,13.1806667 6.67266667,13.274 C6.672,13.294 6.66666667,13.3126667 6.66666667,13.3333333 C6.66666667,14.0693333 7.264,14.6666667 8,14.6666667 C8.736,14.6666667 9.33333333,14.0693333 9.33333333,13.3333333 C9.33333333,13.3126667 9.328,13.294 9.32733333,13.274 C10.4433333,13.1813333 11.528,12.978 12.5666667,12.6666667 C12.6,12.66 12.6333333,12.6466667 12.6666667,12.64 C13.12,12.5 13.5666667,12.3466667 14,12.16 L14,11.3333333 C13.2666667,11.3333333 12.6666667,10.7333333 12.6666667,10" id="Fill-1" fill="#ADE3AF"></path>
                            </g>
                        </g>
                        <rect id="Rectangle" fill="#F0F0F0" fill-rule="nonzero" x="30" y="8" width="70" height="4" rx="1"></rect>
                        <rect id="Rectangle-Copy" fill="#F0F0F0" fill-rule="nonzero" x="30" y="15" width="70" height="4" rx="1"></rect>
                        <rect id="Rectangle-Copy-2" fill="#F0F0F0" fill-rule="nonzero" x="30" y="22" width="42" height="4" rx="1"></rect>
                    </g>
                </g>
            </g>
        </g>
    </g>
</svg>